<svg width="77" height="20" viewBox="0 0 77 20" fill="none" xmlns="http://www.w3.org/2000/svg">
<path d="M0 1.21597H3.264V16.216H10.92V19.096H0V1.21597Z" fill="#151411"/>
<path d="M16.7272 19.384C15.3512 19.384 14.2552 19.048 13.4392 18.376C12.6392 17.704 12.2393 16.792 12.2393 15.64C12.2393 14.536 12.6153 13.624 13.3673 12.904C14.1193 12.184 15.2472 11.704 16.7512 11.464L20.6392 10.84V10.408C20.6392 9.83197 20.4153 9.35997 19.9673 8.99197C19.5353 8.62397 18.9593 8.43997 18.2393 8.43997C17.5672 8.43997 16.9672 8.62397 16.4392 8.99197C15.9272 9.34397 15.5512 9.81597 15.3112 10.408L12.7432 9.15997C13.1272 8.13597 13.8312 7.31197 14.8552 6.68797C15.8792 6.06397 17.0472 5.75197 18.3592 5.75197C19.4152 5.75197 20.3512 5.95197 21.1672 6.35197C21.9993 6.73597 22.6392 7.28797 23.0872 8.00797C23.5513 8.71197 23.7833 9.51197 23.7833 10.408V19.096H20.8073V17.704C19.7833 18.824 18.4232 19.384 16.7272 19.384ZM15.5033 15.52C15.5033 15.968 15.6712 16.328 16.0072 16.6C16.3433 16.856 16.7752 16.984 17.3032 16.984C18.2792 16.984 19.0793 16.68 19.7033 16.072C20.3273 15.448 20.6392 14.68 20.6392 13.768V13.24L17.3512 13.792C16.7272 13.92 16.2633 14.128 15.9592 14.416C15.6552 14.688 15.5033 15.056 15.5033 15.52Z" fill="#151411"/>
<path d="M26.6891 0.927967H29.8331V19.096H26.6891V0.927967Z" fill="#151411"/>
<path d="M36.696 19.384C35.32 19.384 34.224 19.048 33.408 18.376C32.608 17.704 32.208 16.792 32.208 15.64C32.208 14.536 32.584 13.624 33.336 12.904C34.088 12.184 35.216 11.704 36.72 11.464L40.608 10.84V10.408C40.608 9.83197 40.384 9.35997 39.936 8.99197C39.504 8.62397 38.928 8.43997 38.208 8.43997C37.536 8.43997 36.936 8.62397 36.408 8.99197C35.896 9.34397 35.52 9.81597 35.28 10.408L32.712 9.15997C33.096 8.13597 33.8 7.31197 34.824 6.68797C35.848 6.06397 37.016 5.75197 38.328 5.75197C39.384 5.75197 40.32 5.95197 41.136 6.35197C41.968 6.73597 42.608 7.28797 43.056 8.00797C43.52 8.71197 43.752 9.51197 43.752 10.408V19.096H40.776V17.704C39.752 18.824 38.392 19.384 36.696 19.384ZM35.472 15.52C35.472 15.968 35.64 16.328 35.976 16.6C36.312 16.856 36.744 16.984 37.272 16.984C38.248 16.984 39.048 16.68 39.672 16.072C40.296 15.448 40.608 14.68 40.608 13.768V13.24L37.32 13.792C36.696 13.92 36.232 14.128 35.928 14.416C35.624 14.688 35.472 15.056 35.472 15.52Z" fill="#151411"/>
<path d="M51.5539 19.36C50.2419 19.36 49.0819 19.048 48.0739 18.424C47.0819 17.8 46.3779 16.944 45.9619 15.856L48.2899 14.656C48.6419 15.36 49.1059 15.912 49.6819 16.312C50.2739 16.696 50.9219 16.888 51.6259 16.888C52.2339 16.888 52.7059 16.768 53.0419 16.528C53.3939 16.272 53.5699 15.928 53.5699 15.496C53.5699 15.128 53.4259 14.824 53.1379 14.584C52.8499 14.328 52.4739 14.16 52.0099 14.08L49.8739 13.72C48.7699 13.432 47.9139 12.944 47.3059 12.256C46.7139 11.552 46.4179 10.728 46.4179 9.78397C46.4179 8.99997 46.6259 8.30397 47.0419 7.69597C47.4579 7.07197 48.0339 6.59197 48.7699 6.25597C49.5219 5.91997 50.3699 5.75197 51.3139 5.75197C52.5139 5.75197 53.5699 6.03997 54.4819 6.61597C55.3939 7.17597 56.0579 7.95997 56.4739 8.96797L54.1459 10.168C53.8899 9.60797 53.4979 9.15997 52.9699 8.82397C52.4419 8.48797 51.8579 8.31997 51.2179 8.31997C50.6899 8.31997 50.2659 8.43997 49.9459 8.67997C49.6419 8.91997 49.4899 9.23197 49.4899 9.61597C49.4899 10.32 50.0179 10.792 51.0739 11.032L53.1619 11.416C54.2659 11.72 55.1219 12.216 55.7299 12.904C56.3379 13.592 56.6419 14.408 56.6419 15.352C56.6419 16.136 56.4259 16.832 55.9939 17.44C55.5779 18.048 54.9859 18.52 54.2179 18.856C53.4499 19.192 52.5619 19.36 51.5539 19.36Z" fill="#151411"/>
<path d="M58.986 6.03997H62.13V19.096H58.986V6.03997ZM58.746 2.43997C58.746 1.86397 58.906 1.41597 59.226 1.09597C59.546 0.775967 59.986 0.615967 60.546 0.615967C61.122 0.615967 61.57 0.775967 61.89 1.09597C62.21 1.41597 62.37 1.86397 62.37 2.43997C62.37 2.99997 62.21 3.43997 61.89 3.75997C61.586 4.07997 61.138 4.23997 60.546 4.23997C59.986 4.23997 59.546 4.07997 59.226 3.75997C58.906 3.43997 58.746 2.99997 58.746 2.43997Z" fill="#151411"/>
<path d="M68.9929 19.384C67.6169 19.384 66.5209 19.048 65.7049 18.376C64.9049 17.704 64.5049 16.792 64.5049 15.64C64.5049 14.536 64.8809 13.624 65.6329 12.904C66.3849 12.184 67.5129 11.704 69.0169 11.464L72.9049 10.84V10.408C72.9049 9.83197 72.6809 9.35997 72.2329 8.99197C71.8009 8.62397 71.2249 8.43997 70.5049 8.43997C69.8329 8.43997 69.2329 8.62397 68.7049 8.99197C68.1929 9.34397 67.8169 9.81597 67.5769 10.408L65.0089 9.15997C65.3929 8.13597 66.0969 7.31197 67.1209 6.68797C68.1449 6.06397 69.3129 5.75197 70.6249 5.75197C71.6809 5.75197 72.6169 5.95197 73.4329 6.35197C74.2649 6.73597 74.9049 7.28797 75.3529 8.00797C75.8169 8.71197 76.0489 9.51197 76.0489 10.408V19.096H73.0729V17.704C72.0489 18.824 70.6889 19.384 68.9929 19.384ZM67.7689 15.52C67.7689 15.968 67.9369 16.328 68.2729 16.6C68.6089 16.856 69.0409 16.984 69.5689 16.984C70.5449 16.984 71.3449 16.68 71.9689 16.072C72.5929 15.448 72.9049 14.68 72.9049 13.768V13.24L69.6169 13.792C68.9929 13.92 68.5289 14.128 68.2249 14.416C67.9209 14.688 67.7689 15.056 67.7689 15.52Z" fill="#151411"/>
</svg>
